<svg width="71" height="58" viewBox="0 0 71 58" fill="none" xmlns="http://www.w3.org/2000/svg">
<circle cx="37" cy="41" r="15" fill="#ED1E79"/>
<circle cx="37" cy="41" r="15" fill="url(#paint0_linear_120_933)"/>
<g filter="url(#filter0_f_120_933)">
<path d="M27.5603 31.4728C29.6126 28.1814 39.7951 26.2223 43.8496 29.7886" stroke="white" stroke-width="5"/>
</g>
<g filter="url(#filter1_f_120_933)">
<path d="M43.2024 34.329C43.9159 35.6652 43.6158 37.216 42.5321 37.7927C41.4484 38.3695 39.9916 37.7538 39.2781 36.4176C38.5646 35.0814 38.8647 33.5307 39.9484 32.9539C41.0321 32.3771 42.489 32.9928 43.2024 34.329Z" fill="white"/>
<path d="M46.615 31.5458C47.5301 33.1524 47.4065 34.9461 46.3389 35.5521C45.2714 36.1581 43.6641 35.3469 42.7491 33.7403C41.834 32.1337 41.9576 30.34 43.0251 29.734C44.0927 29.128 45.6999 29.9392 46.615 31.5458Z" fill="white"/>
</g>
<path d="M37 47.6666L43.6667 40.9999L37 34.3333" stroke="#FCF8F9" stroke-width="2" stroke-linecap="round" stroke-linejoin="round"/>
<path d="M30.333 41H43.6663" stroke="#FCF8F9" stroke-width="2" stroke-linecap="round" stroke-linejoin="round"/>
<defs>
<filter id="filter0_f_120_933" x="0.438914" y="0.386414" width="70.0618" height="57.4091" filterUnits="userSpaceOnUse" color-interpolation-filters="sRGB">
<feFlood flood-opacity="0" result="BackgroundImageFix"/>
<feBlend mode="normal" in="SourceGraphic" in2="BackgroundImageFix" result="shape"/>
<feGaussianBlur stdDeviation="12.5" result="effect1_foregroundBlur_120_933"/>
</filter>
<filter id="filter1_f_120_933" x="28.8908" y="19.5331" width="28.3372" height="28.476" filterUnits="userSpaceOnUse" color-interpolation-filters="sRGB">
<feFlood flood-opacity="0" result="BackgroundImageFix"/>
<feBlend mode="normal" in="SourceGraphic" in2="BackgroundImageFix" result="shape"/>
<feGaussianBlur stdDeviation="5" result="effect1_foregroundBlur_120_933"/>
</filter>
<linearGradient id="paint0_linear_120_933" x1="28.733" y1="49.2244" x2="45.7784" y2="28.7273" gradientUnits="userSpaceOnUse">
<stop stop-color="#A7335C"/>
<stop offset="1" stop-color="#E6729B" stop-opacity="0"/>
</linearGradient>
</defs>
</svg>
