<svg width="53" height="31" viewBox="0 0 53 31" fill="none" xmlns="http://www.w3.org/2000/svg">
<g clip-path="url(#clip0_803_6674)">
<path d="M52.9999 0.980889L16.3628 10.9728L7.48106 0.425781L52.9999 0.980889Z" fill="#FCF8F9"/>
<path d="M19.1383 13.7484L52.9999 0.980889L29.1303 27.0709L22.0526 17.6341L19.1383 13.7484Z" fill="#FCF8F9"/>
<path d="M16.3628 10.9728L52.9999 0.980889L19.1383 13.7484L14.6975 19.8545L16.3628 10.9728Z" fill="#F3E2E7"/>
<path d="M14.6975 19.8545L19.1383 13.7484L22.0526 17.6341L14.6975 19.8545Z" fill="#F3E2E7"/>
<path d="M16.3628 10.9728L52.9999 0.980889M16.3628 10.9728L7.48106 0.425781L52.9999 0.980889M16.3628 10.9728L14.6975 19.8545M52.9999 0.980889L19.1383 13.7484M52.9999 0.980889L29.1303 27.0709L22.0526 17.6341M14.6975 19.8545L19.1383 13.7484M14.6975 19.8545L22.0526 17.6341M19.1383 13.7484L22.0526 17.6341" stroke="#EA1E79" stroke-width="0.334203"/>
<line x1="0.167102" y1="-0.167102" x2="7.60441" y2="-0.167102" transform="matrix(-1 0 0 1 30.7956 2.646)" stroke="#EA1E79" stroke-width="0.334203" stroke-linecap="round"/>
<line x1="0.167102" y1="-0.167102" x2="10.3799" y2="-0.167102" transform="matrix(-1 0 0 1 21.914 2.646)" stroke="#EA1E79" stroke-width="0.334203" stroke-linecap="round"/>
<line x1="0.267363" y1="-0.267363" x2="10.8348" y2="-0.267363" transform="matrix(-0.917866 0.396892 0.396892 0.917866 19.6935 26.2527)" stroke="#FCF8F9" stroke-width="0.534725" stroke-linecap="round"/>
<line x1="0.267363" y1="-0.267363" x2="10.2797" y2="-0.267363" transform="matrix(-0.931183 0.364552 0.364552 0.931183 11.0256 21.2603)" stroke="#FCF8F9" stroke-width="0.534725" stroke-linecap="round"/>
<line x1="0.267363" y1="-0.267363" x2="10.2797" y2="-0.267363" transform="matrix(-0.948986 0.315318 0.315318 0.948986 10.0091 13.7485)" stroke="#FCF8F9" stroke-width="0.534725" stroke-linecap="round"/>
</g>
<defs>
<clipPath id="clip0_803_6674">
<rect width="52.9998" height="30.2333" fill="white" transform="translate(0.000137329 0.425781)"/>
</clipPath>
</defs>
</svg>
