<svg width="60" height="101" viewBox="0 0 60 101" fill="none" xmlns="http://www.w3.org/2000/svg">
<g clip-path="url(#clip0_805_10712)">
<path d="M18.7431 3.93509C25.9551 11.2733 29.5398 19.4655 33.1737 28.9806C36.3061 37.1826 35.3579 47.4393 27.3789 52.9689C22.7055 56.2077 17.1746 57.7712 13.4906 52.5958C11.9484 50.4293 10.998 45.6819 13.7122 44.0312C18.755 40.9643 26.4016 38.9435 32.2549 38.8317C42.3054 38.6398 47.5589 47.3568 49.1528 56.0637C51.1185 66.8022 46.0844 78.3705 41.3951 87.7916C39.3777 91.8446 36.5602 95.7764 33.1351 98.7217" stroke="#4B4D4E" stroke-width="3" stroke-linecap="round"/>
<path d="M31.2398 79.0734C32.219 82.6523 32.1186 86.1558 32.0887 89.8406C32.0725 91.8455 32.035 93.8582 31.7474 95.843C31.631 96.6462 31.7152 97.4534 31.6356 98.2569C31.6004 98.6126 31.4595 98.9855 31.5562 99.3389" stroke="#4B4D4E" stroke-width="3" stroke-linecap="round"/>
<path d="M52.7443 95.2161C50.2559 95.8605 47.7393 96.3311 45.1973 96.7364C40.6344 97.464 27.3732 101.539 31.8414 100.382" stroke="#4B4D4E" stroke-width="3" stroke-linecap="round"/>
</g>
<defs>
<clipPath id="clip0_805_10712">
<rect width="58.1344" height="100.846" fill="white" transform="translate(0.972656)"/>
</clipPath>
</defs>
</svg>
